<?xml version="1.0" encoding="utf-8"?>
<!-- Generator: Adobe Illustrator 17.1.0, SVG Export Plug-In . SVG Version: 6.00 Build 0)  -->
<!DOCTYPE svg PUBLIC "-//W3C//DTD SVG 1.1//EN" "http://www.w3.org/Graphics/SVG/1.1/DTD/svg11.dtd">
<svg version="1.1" id="Layer_1" xmlns="http://www.w3.org/2000/svg" xmlns:xlink="http://www.w3.org/1999/xlink" x="0px" y="0px"
	 viewBox="0 0 800 270.575" enable-background="new 0 0 800 270.575" xml:space="preserve">
<path fill="#FC4C02" d="M142.731,185.345c0,10.235,0,26.239-19.167,26.239c-11.724,0-16.376-6.327-19.167-16.934
	c-10.235,12.282-22.889,18.609-38.148,18.609C28.658,213.259,0,181.251,0,136.032c0-43.917,29.588-77.599,66.248-77.599
	c14.701,0,29.216,5.769,38.148,18.423c1.117-9.677,9.491-16.748,19.167-16.748c19.167,0,19.167,15.818,19.167,26.239
	L142.731,185.345L142.731,185.345z M71.831,176.413c20.842,0,30.891-21.214,30.891-40.381s-9.677-40.94-30.891-40.94
	c-21.959,0-31.821,21.773-31.821,40.94S50.058,176.413,71.831,176.413z"/>
<path fill="#FC4C02" d="M154.082,82.438c0-13.398,8.374-22.331,20.098-22.331c11.165,0,17.492,6.141,20.098,16.748
	c7.444-12.282,23.075-18.423,38.148-18.423c43.173,0,64.573,40.381,64.573,79.274c0,37.776-25.68,75.366-66.062,75.366
	c-12.468,0-26.239-4.652-36.66-13.957v48.942c0,13.398-8.374,22.331-20.098,22.331s-20.098-8.932-20.098-22.331V82.438z
	 M225.727,176.413c20.842,0,31.263-21.772,31.263-40.381c0-18.981-10.235-40.94-31.263-40.94c-21.4,0-31.449,20.098-31.449,39.451
	C194.278,154.268,203.582,176.413,225.727,176.413z"/>
<path fill="#FC4C02" d="M348.918,21.959c0,12.468-10.049,23.075-22.517,23.075c-11.91,0-22.517-10.793-22.517-23.075
	C303.885,10.607,314.492,0,326.401,0C338.311,0,348.918,10.235,348.918,21.959z M306.304,82.438
	c0-13.398,8.374-22.331,20.098-22.331s20.098,8.932,20.098,22.331v106.816c0,13.398-8.374,22.331-20.098,22.331
	s-20.098-8.932-20.098-22.331V82.438z"/>
<path fill="#54585A" d="M498.721,198.186c0,48.197-31.449,72.389-77.041,72.389c-16.376,0-63.271-8.002-63.271-30.147
	c0-7.444,8.374-17.492,16.19-17.492c12.84,0,26.983,12.468,50.058,12.468c19.539,0,33.868-11.351,33.868-31.635v-9.491h-0.558
	c-8.374,12.282-21.959,18.981-40.381,18.981c-42.056,0-61.782-37.032-61.782-76.855c0-40.381,25.68-77.972,66.062-77.972
	c13.585,0,29.216,6.141,36.66,18.423c2.419-10.607,8.932-16.748,20.098-16.748c11.724,0,20.098,8.932,20.098,22.331L498.721,198.186
	L498.721,198.186z M427.262,95.278c-20.842,0-31.263,21.773-31.263,40.381c0,21.4,10.235,40.94,31.263,40.94
	c21.4,0,31.449-20.098,31.449-39.451C458.711,117.423,449.221,95.278,427.262,95.278z"/>
<path fill="#54585A" d="M546.918,149.244c2.791,19.726,19.167,29.03,37.776,29.03c20.656,0,34.799-16.19,45.406-16.19
	c8.56,0,16.376,8.56,16.376,17.306c0,17.306-35.543,34.054-65.504,34.054c-45.034,0-75.18-32.938-75.18-77.041
	c0-40.568,29.588-77.599,71.831-77.599c43.359,0,72.017,39.451,72.017,72.947c0,11.91-5.211,17.865-17.492,17.865h-85.229V149.244z
	 M609.816,122.447c-2.233-17.492-13.398-30.705-32.008-30.705c-17.865,0-29.774,13.585-31.821,30.705H609.816z"/>
<path fill="#54585A" d="M697.278,149.802c2.791,19.726,19.167,28.844,37.776,28.844c20.656,0,34.799-16.19,45.406-16.19
	c8.56,0,16.376,8.56,16.376,17.306c0,17.306-35.543,34.054-65.504,34.054c-45.034,0-75.18-32.938-75.18-77.041
	c0-40.568,29.588-77.599,71.831-77.599c43.359,0,72.017,39.451,72.017,72.947c0,11.91-5.211,17.865-17.492,17.865h-85.229V149.802z
	 M760.177,123.005c-2.233-17.492-13.398-30.705-32.008-30.705c-17.865,0-29.774,13.585-31.635,30.705H760.177z"/>
</svg>
