<svg xmlns="http://www.w3.org/2000/svg" viewBox="0 0 800 270.575" enable-background="new 0 0 800 270.575"><path fill="#FC4C02" d="M142.73 185.345c0 10.235 0 26.24-19.166 26.24-11.724 0-16.376-6.328-19.167-16.935-10.235 12.282-22.89 18.61-38.148 18.61C28.657 213.26 0 181.25 0 136.03c0-43.917 29.588-77.6 66.248-77.6 14.7 0 29.216 5.77 38.148 18.424 1.117-9.677 9.49-16.748 19.167-16.748 19.167 0 19.167 15.818 19.167 26.24v98.997zm-70.9-8.932c20.843 0 30.892-21.214 30.892-40.38s-9.677-40.94-30.89-40.94c-21.96 0-31.822 21.772-31.822 40.94s10.048 40.38 31.82 40.38zM154.082 82.438c0-13.398 8.374-22.33 20.098-22.33 11.165 0 17.492 6.14 20.098 16.747 7.444-12.282 23.075-18.423 38.148-18.423 43.173 0 64.573 40.38 64.573 79.274 0 37.776-25.68 75.366-66.063 75.366-12.468 0-26.24-4.652-36.66-13.957v48.942c0 13.398-8.374 22.33-20.098 22.33s-20.1-8.93-20.1-22.33V82.437zm71.645 93.975c20.842 0 31.263-21.772 31.263-40.38 0-18.982-10.235-40.94-31.263-40.94-21.4 0-31.45 20.097-31.45 39.45 0 19.725 9.305 41.87 31.45 41.87zM348.918 21.96c0 12.467-10.05 23.074-22.517 23.074-11.91 0-22.516-10.793-22.516-23.075C303.884 10.606 314.492 0 326.4 0c11.91 0 22.518 10.235 22.518 21.96zm-42.614 60.478c0-13.398 8.374-22.33 20.098-22.33s20.098 8.93 20.098 22.33v106.816c0 13.398-8.374 22.33-20.098 22.33s-20.098-8.93-20.098-22.33V82.438z"/><path fill="#54585A" d="M498.72 198.186c0 48.197-31.448 72.39-77.04 72.39-16.376 0-63.27-8.003-63.27-30.148 0-7.444 8.373-17.492 16.19-17.492 12.84 0 26.982 12.468 50.057 12.468 19.54 0 33.868-11.35 33.868-31.635v-9.492h-.558c-8.374 12.282-21.96 18.98-40.38 18.98-42.057 0-61.783-37.03-61.783-76.854 0-40.38 25.68-77.972 66.062-77.972 13.585 0 29.216 6.14 36.66 18.423 2.42-10.607 8.932-16.748 20.098-16.748 11.724 0 20.098 8.932 20.098 22.33v115.75zM427.263 95.278c-20.842 0-31.263 21.773-31.263 40.38 0 21.4 10.234 40.94 31.262 40.94 21.4 0 31.45-20.097 31.45-39.45 0-19.725-9.49-41.87-31.45-41.87zM546.918 149.244c2.79 19.726 19.167 29.03 37.776 29.03 20.656 0 34.8-16.19 45.406-16.19 8.56 0 16.376 8.56 16.376 17.306 0 17.306-35.543 34.054-65.504 34.054-45.034 0-75.18-32.938-75.18-77.04 0-40.57 29.588-77.6 71.83-77.6 43.36 0 72.018 39.45 72.018 72.947 0 11.91-5.21 17.866-17.492 17.866h-85.23v-.372zm62.898-26.797c-2.233-17.492-13.398-30.705-32.008-30.705-17.865 0-29.774 13.585-31.82 30.705h63.828zM697.278 149.802c2.79 19.726 19.167 28.844 37.776 28.844 20.656 0 34.8-16.19 45.406-16.19 8.56 0 16.376 8.56 16.376 17.306 0 17.306-35.543 34.054-65.504 34.054-45.034 0-75.18-32.938-75.18-77.04 0-40.57 29.588-77.6 71.83-77.6 43.36 0 72.018 39.45 72.018 72.947 0 11.91-5.21 17.865-17.492 17.865h-85.23v-.186zm62.9-26.797c-2.234-17.492-13.4-30.705-32.01-30.705-17.864 0-29.773 13.585-31.634 30.705h63.643z"/></svg>